<svg xmlns="http://www.w3.org/2000/svg" viewBox="0 0 1932 1932">
  <defs>
    <linearGradient id="a" x1="0" y1="212" x2="0" y2="990" gradientUnits="userSpaceOnUse"><stop offset="0" stop-color="#5FE3CF"/><stop offset="1" stop-color="#4BC8B6"/></linearGradient>
    <linearGradient id="l" x1="0" y1="1120" x2="0" y2="1586" gradientUnits="userSpaceOnUse"><stop offset="0" stop-color="#43A99B"/><stop offset="1" stop-color="#24665D"/></linearGradient>
  </defs>
  <rect width="1932" height="1932" rx="400" fill="#171F2A"/>
  <path d="M966 212 1366 990H566ZM966 540 820 916H1111Z" fill="url(#a)" fill-rule="evenodd"/>
  <path d="M540 1120 346 1586H602L790 1120ZM1392 1120 1586 1586H1330L1142 1120Z" fill="url(#l)"/>
  <circle cx="966" cy="362" r="52" fill="#8CF7E4"/>
  <path d="M966 405 1020 920 1660 1177 1550 1250 1020 1138V1440L1166 1512 966 1473 766 1512 912 1440V1138L381 1250 272 1177 912 920Z" fill="#F8FAFB"/>
</svg>
